<?xml version="1.0" standalone="no"?>
<!DOCTYPE svg PUBLIC "-//W3C//DTD SVG 20010904//EN"
 "http://www.w3.org/TR/2001/REC-SVG-20010904/DTD/svg10.dtd">
<svg version="1.0" xmlns="http://www.w3.org/2000/svg"
 width="1042.000000pt" height="1042.000000pt" viewBox="0 0 1042.000000 1042.000000"
 preserveAspectRatio="xMidYMid meet">

<g transform="translate(0.000000,1042.000000) scale(0.100000,-0.100000)"
fill="#000000" stroke="none">
<path d="M0 5210 l0 -5210 5210 0 5210 0 0 5210 0 5210 -5210 0 -5210 0 0
-5210z m2430 2480 c30 -7 72 -16 93 -21 l37 -10 0 -209 0 -209 38 -10 c20 -6
47 -11 60 -11 l22 0 0 204 0 204 33 -8 c17 -5 67 -16 110 -25 l77 -17 0 -208
0 -207 57 -12 c31 -6 60 -11 65 -11 4 0 8 95 8 211 0 196 1 210 18 205 9 -3
49 -12 87 -21 39 -8 80 -17 93 -20 l22 -5 0 -335 c0 -262 -3 -335 -12 -335 -7
0 -211 44 -453 98 l-440 97 -3 338 c-2 319 -1 338 15 334 10 -3 43 -11 73 -17z
m224 -895 c20 -61 36 -113 36 -116 0 -4 -11 -9 -23 -13 -101 -25 -148 -174
-93 -292 75 -162 323 -211 419 -82 67 90 59 212 -19 295 -19 20 -34 38 -34 41
0 3 28 48 61 99 l61 93 35 -29 c99 -81 153 -197 160 -341 9 -160 -33 -287
-124 -378 -73 -73 -148 -105 -259 -110 -154 -7 -277 34 -376 125 -212 198
-236 550 -49 732 48 46 151 105 162 93 4 -4 23 -57 43 -117z m800 -118 c17
-14 23 -24 15 -24 -8 -1 -29 -6 -46 -11 l-33 -11 0 51 c0 49 1 51 18 35 9 -9
30 -27 46 -40z m144 -140 c12 -13 19 -27 15 -32 -5 -4 -2 -4 6 0 11 6 13 4 8
-8 -4 -11 -2 -14 8 -11 8 3 33 -12 57 -35 34 -33 40 -43 29 -50 -14 -9 -198
-60 -288 -80 l-43 -9 0 103 0 103 83 20 c106 26 100 26 125 -1z m247 -237 c4
-6 11 -7 17 -4 7 5 9 0 6 -14 -4 -13 -2 -19 6 -16 6 2 35 -20 65 -50 l53 -54
-57 -21 c-137 -51 -474 -141 -529 -141 -14 0 -16 14 -16 99 l0 99 153 36 c83
21 177 46 207 56 65 21 87 24 95 10z m256 -241 c11 -5 16 -15 13 -21 -4 -6 -3
-8 3 -5 5 3 33 -18 62 -47 l53 -54 -23 -15 c-28 -18 -144 -64 -242 -97 l-68
-22 44 -28 c25 -15 47 -34 49 -40 3 -9 14 -10 36 -5 29 6 32 10 32 46 l0 39
100 0 c67 0 113 5 136 15 27 11 35 12 31 2 -3 -9 27 -12 132 -11 75 0 175 -2
224 -4 l87 -3 0 -105 0 -104 -70 0 c-67 0 -70 -1 -70 -23 0 -13 11 -34 25 -47
19 -18 22 -26 13 -32 -8 -4 8 -8 37 -8 l51 0 -4 -71 c-4 -57 -2 -71 9 -67 11
4 15 50 17 231 l2 227 335 0 335 0 0 -352 c0 -193 3 -348 6 -345 4 4 8 134 9
289 1 156 3 311 3 346 l2 63 128 -3 127 -3 -1 -355 c-1 -339 -1 -357 -21 -395
-47 -90 -116 -127 -239 -128 -68 -1 -89 3 -135 26 -64 31 -112 78 -128 126 -7
22 -12 144 -13 340 -1 168 -3 278 -5 244 l-4 -63 -69 0 -70 0 0 -55 0 -55 65
0 65 0 0 -100 0 -100 -65 0 -65 0 0 -66 c0 -66 0 -67 45 -106 25 -22 42 -45
38 -50 -3 -6 -2 -8 4 -5 6 4 21 -5 33 -18 13 -14 31 -25 39 -25 27 -1 -14 -26
-181 -111 l-157 -79 -85 0 -86 0 0 -39 c0 -28 -5 -40 -17 -44 -10 -3 -85 -30
-166 -61 -275 -105 -634 -198 -947 -246 -187 -29 -170 -38 -170 79 l0 98 113
17 c156 24 338 62 496 102 221 57 591 185 591 205 0 7 -184 16 -245 11 -5 0
-77 -21 -160 -47 -236 -73 -522 -138 -748 -170 l-48 -6 3 103 c3 102 3 103 28
106 69 8 70 8 70 68 l0 55 -50 -7 -50 -7 0 101 0 100 48 8 47 9 3 58 c3 57 3
58 -22 52 -15 -3 -37 -7 -51 -10 l-25 -5 0 104 0 103 50 7 50 7 0 56 0 56 -50
-7 -50 -7 0 100 c0 96 1 101 23 106 12 3 76 17 142 31 139 31 351 92 445 128
76 29 75 29 101 15z m-1291 -187 l435 -97 3 -122 c2 -95 0 -123 -10 -123 -7 0
-212 43 -455 97 l-443 97 0 123 c0 111 2 123 18 122 9 0 213 -44 452 -97z
m3341 -74 c79 -36 100 -74 107 -189 l5 -89 -113 0 -113 0 74 -49 c127 -83 156
-128 166 -260 11 -143 -23 -213 -127 -260 -68 -31 -198 -29 -265 4 -102 49
-125 88 -132 226 l-6 98 102 3 102 3 -79 57 c-87 63 -107 93 -122 183 -9 55 2
161 20 194 55 102 245 142 381 79z m817 17 c67 -20 113 -61 143 -127 24 -52
24 -58 22 -315 -3 -299 -7 -318 -79 -382 -56 -49 -112 -65 -211 -59 -91 5
-146 30 -191 84 -49 59 -54 93 -50 384 l3 265 27 47 c59 99 202 142 336 103z
m-408 -440 l0 -435 -53 0 c-30 0 -88 3 -130 6 l-77 7 0 428 0 429 130 0 130 0
0 -435z m865 330 c17 -55 34 -107 37 -115 4 -8 7 38 7 103 l1 117 114 0 115 0
-2 -424 c-1 -233 -5 -427 -9 -431 -4 -4 -55 -8 -114 -8 l-108 -2 -31 107 c-16
58 -34 110 -39 115 -5 4 -7 -43 -5 -107 l4 -115 -112 0 -113 0 0 433 0 433
112 -3 113 -3 30 -100z m-4272 -257 l97 -21 0 -304 c0 -166 -2 -303 -5 -303
-7 0 -868 190 -887 196 -16 5 -18 20 -18 130 0 115 1 125 18 120 21 -6 660
-146 667 -146 3 0 5 79 5 175 0 133 3 175 13 175 6 0 56 -10 110 -22z m2185
-573 l47 -45 -135 1 -135 0 85 44 c47 24 86 44 88 44 1 1 24 -19 50 -44z
m-3159 -98 l101 -133 0 -87 0 -87 -105 115 -105 115 0 105 c0 58 2 105 4 105
2 0 49 -60 105 -133z m304 98 l77 -17 0 -213 0 -212 38 -7 c20 -3 47 -9 60
-12 l22 -6 0 206 c0 158 3 206 13 206 6 -1 55 -11 107 -23 l95 -22 3 -207 2
-206 45 -11 c92 -23 85 -38 85 194 0 125 4 205 10 205 5 0 54 -10 110 -21
l100 -22 0 -333 c0 -311 -1 -334 -17 -334 -10 0 -215 43 -455 96 l-438 97 0
338 0 337 33 -8 c17 -5 67 -16 110 -25z m2207 -350 l0 -105 -33 -14 c-67 -28
-309 -107 -447 -146 -183 -51 -426 -103 -610 -130 -80 -11 -160 -23 -178 -26
l-33 -5 3 102 3 103 125 18 c350 50 731 147 1030 262 63 24 121 44 128 45 9 1
12 -26 12 -104z m0 -333 l0 -108 -157 -52 c-346 -113 -774 -208 -1075 -238
l-68 -6 0 101 c0 58 4 101 10 101 26 0 251 34 374 56 258 47 597 138 811 218
50 19 93 34 98 35 4 1 7 -48 7 -107z m-1860 -205 l415 -92 3 -123 c2 -113 1
-122 -16 -122 -10 0 -89 16 -175 35 -86 19 -159 35 -162 35 -3 0 -5 -78 -5
-173 l0 -174 180 -38 180 -38 0 -124 c0 -92 -3 -123 -12 -123 -7 0 -212 43
-455 97 l-443 97 0 123 c0 95 3 123 13 123 7 0 75 -13 150 -30 76 -16 144 -30
152 -30 13 0 15 27 15 169 0 153 -2 170 -17 175 -10 2 -84 19 -165 37 l-148
32 0 125 0 124 38 -7 c20 -3 224 -47 452 -98z m1860 -125 l0 -109 -132 -41
c-339 -106 -694 -184 -1013 -222 -49 -6 -105 -13 -122 -16 l-33 -5 0 101 c0
72 4 102 13 104 6 2 73 11 147 21 354 44 814 156 1138 274 1 1 2 -48 2 -107z
m1910 -191 c0 -7 -96 -71 -105 -71 -3 0 -5 40 -4 89 l3 89 53 -51 c29 -28 53
-53 53 -56z m-1910 -139 l0 -109 -142 -41 c-342 -99 -626 -158 -973 -203 -82
-10 -158 -19 -167 -19 -16 0 -18 11 -18 100 0 59 4 100 10 100 37 0 413 56
540 81 235 46 605 144 748 198 1 1 2 -48 2 -107z m2038 23 c16 -13 33 -21 37
-17 5 4 5 2 2 -4 -3 -6 9 -26 28 -44 19 -19 35 -37 35 -41 0 -7 -298 -205
-325 -215 -13 -5 -15 9 -15 109 l0 116 93 60 c50 33 97 61 104 61 6 0 25 -11
41 -25z m332 -327 c0 -4 -68 -52 -150 -107 l-150 -101 -135 0 -135 0 0 38 c0
35 4 39 68 77 37 22 131 81 209 131 78 51 147 94 153 96 11 3 140 -121 140
-134z m-2377 -129 c-4 -4 -66 -23 -137 -43 l-130 -36 -513 0 c-428 0 -513 2
-513 14 0 9 21 15 73 20 128 12 416 56 571 87 144 29 464 108 591 147 l60 18
3 -100 c1 -54 -1 -103 -5 -107z m2572 -71 c-8 -5 -76 -7 -151 -6 l-137 3 94
62 94 63 57 -57 c45 -45 55 -59 43 -65z"/>
<path d="M3645 6460 c3 -5 8 -10 11 -10 2 0 4 5 4 10 0 6 -5 10 -11 10 -5 0
-7 -4 -4 -10z"/>
<path d="M4110 5760 c0 -5 7 -7 15 -4 8 4 15 8 15 10 0 2 -7 4 -15 4 -8 0 -15
-4 -15 -10z"/>
<path d="M4523 5761 c-111 -6 -124 -12 -79 -37 30 -16 28 -41 -5 -54 -27 -12
-29 -16 -29 -72 0 -68 -5 -67 107 -17 48 21 63 33 63 49 0 18 6 20 69 20 l69
0 6 31 c3 17 6 44 6 60 0 33 22 31 -207 20z"/>
<path d="M4825 5571 l0 -200 33 -34 c18 -18 29 -37 25 -42 -5 -4 -3 -5 3 -2 6
3 26 -9 44 -28 l32 -34 -71 -35 -71 -36 0 -61 c0 -45 3 -60 13 -56 6 2 45 19
85 37 l72 33 0 113 0 114 65 0 65 0 0 50 0 50 -65 0 -65 0 0 105 0 105 75 0
75 0 0 60 0 60 -157 0 -158 0 0 -199z"/>
<path d="M5239 5765 c-3 -3 -4 -149 -3 -326 3 -312 3 -322 26 -367 33 -67 84
-93 186 -95 42 0 94 5 114 12 46 15 93 68 107 118 7 23 11 163 11 351 l0 312
-85 0 -84 0 -3 -340 c-3 -369 -2 -363 -58 -358 -45 5 -48 28 -48 372 l1 321
-80 3 c-43 1 -81 0 -84 -3z"/>
<path d="M3645 5730 l-110 -27 -3 -56 -3 -57 33 7 c121 24 133 28 136 51 3 17
10 22 33 22 17 0 38 -4 48 -10 21 -11 162 28 168 47 3 7 -14 21 -36 32 -54 28
-128 26 -266 -9z"/>
<path d="M4333 5623 c-9 -3 -13 -26 -13 -65 0 -51 2 -59 16 -54 9 3 18 6 20 6
2 0 4 27 4 60 0 59 -2 64 -27 53z"/>
<path d="M4188 5568 l-78 -31 0 -58 0 -59 82 30 c45 17 83 30 85 30 2 0 3 27
3 60 0 33 -3 60 -7 59 -5 -1 -43 -15 -85 -31z"/>
<path d="M4037 5513 c-4 -3 -7 -30 -7 -60 0 -40 4 -53 15 -53 12 0 15 13 15
60 0 55 -6 70 -23 53z"/>
<path d="M3893 5470 c-34 -10 -67 -21 -72 -25 -6 -3 -11 -28 -11 -56 0 -58 2
-58 101 -29 l69 21 0 54 c0 62 2 62 -87 35z"/>
<path d="M4624 5412 c-43 -21 -109 -51 -146 -67 l-68 -28 0 -59 c0 -32 3 -58
8 -57 4 0 41 15 82 32 69 30 75 35 78 65 l3 32 65 0 64 0 0 60 c0 33 -1 60 -3
60 -2 0 -39 -17 -83 -38z"/>
<path d="M3757 5433 c-11 -10 -8 -113 3 -113 6 0 10 27 10 60 0 61 -1 65 -13
53z"/>
<path d="M3608 5402 l-78 -15 0 -58 0 -58 33 6 c17 3 55 11 82 17 l50 11 3 58
c2 31 -1 56 -5 56 -4 -1 -43 -8 -85 -17z"/>
<path d="M4338 5289 c-24 -14 -26 -119 -3 -119 21 0 27 19 23 78 -3 45 -5 50
-20 41z"/>
<path d="M4183 5233 l-73 -25 0 -58 0 -59 83 28 82 28 3 56 c3 66 6 66 -95 30z"/>
<path d="M4026 5134 c-7 -62 -5 -69 19 -61 20 8 22 117 1 117 -9 0 -15 -19
-20 -56z"/>
<path d="M3888 5146 c-42 -11 -85 -29 -96 -39 -14 -13 -33 -17 -68 -16 -27 2
-82 -3 -121 -10 l-73 -13 0 -39 0 -39 98 0 c107 0 327 46 343 71 11 17 12 109
2 108 -5 -1 -42 -11 -85 -23z"/>
<path d="M4698 5102 l-78 -36 0 -58 c0 -32 2 -58 5 -58 3 0 39 14 80 32 l75
32 0 63 c0 35 -1 63 -2 62 -2 0 -38 -17 -80 -37z"/>
<path d="M4510 5021 l-65 -26 64 -3 c35 -2 65 -1 68 2 2 2 3 15 1 28 l-3 24
-65 -25z"/>
<path d="M5885 5766 c-72 -31 -104 -108 -92 -222 9 -85 36 -122 144 -195 125
-84 133 -95 133 -179 0 -75 -16 -100 -63 -100 -39 0 -57 34 -57 107 l0 63 -75
0 -75 0 0 -57 c0 -82 15 -127 55 -162 86 -75 300 -57 355 31 18 29 21 46 18
144 -3 103 -5 113 -30 146 -15 19 -74 67 -131 106 -58 39 -107 79 -111 88 -3
8 -6 39 -6 68 0 58 19 86 58 86 35 0 52 -27 52 -81 l0 -50 78 3 77 3 -2 60
c-3 71 -21 101 -83 133 -36 18 -60 22 -130 22 -48 -1 -98 -7 -115 -14z"/>
<path d="M5990 5602 c0 -21 7 -47 15 -58 13 -17 14 -14 15 39 0 44 -3 57 -15
57 -11 0 -15 -11 -15 -38z"/>
<path d="M5998 5197 c-4 -67 0 -89 15 -84 15 5 15 113 0 128 -8 8 -12 -3 -15
-44z"/>
<path d="M6742 5759 c-49 -24 -75 -57 -91 -114 -14 -51 -14 -464 0 -524 23
-101 89 -146 214 -146 67 0 87 4 125 25 57 32 87 77 95 143 4 29 5 156 3 282
-3 219 -4 232 -26 267 -35 56 -107 88 -201 88 -57 0 -87 -5 -119 -21z m162
-85 c24 -23 24 -548 0 -582 -20 -28 -69 -30 -84 -3 -6 12 -10 122 -10 288 0
227 2 272 16 291 18 26 56 29 78 6z"/>
<path d="M6857 5548 c-8 -115 3 -449 14 -423 10 27 11 487 0 503 -5 8 -10 -24
-14 -80z"/>
<path d="M6350 5380 l0 -390 85 0 85 0 -2 388 -3 387 -82 3 -83 3 0 -391z"/>
<path d="M7218 5563 c-2 -114 -2 -290 0 -390 l5 -183 63 0 64 0 0 243 c0 136
4 235 9 227 5 -8 25 -73 45 -145 21 -71 51 -174 67 -227 l30 -98 75 0 74 0 0
390 0 390 -70 0 -69 0 6 -230 c4 -144 3 -230 -3 -230 -6 0 -43 102 -84 228
l-75 227 -66 3 -66 3 -5 -208z"/>
</g>
</svg>
